<svg xmlns="http://www.w3.org/2000/svg" xmlns:xlink="http://www.w3.org/1999/xlink" width="500" zoomAndPan="magnify" viewBox="0 0 375 374.999991" height="500" preserveAspectRatio="xMidYMid meet" version="1.0"><defs><clipPath id="32786201dc"><path d="M 66 76 L 310 76 L 310 300.980469 L 66 300.980469 Z M 66 76 " clip-rule="nonzero"/></clipPath></defs><g clip-path="url(#32786201dc)"><path fill="#8c52ff" d="M 292.132812 290.886719 C 282.515625 269.265625 265.984375 249.285156 244.730469 238.578125 C 254.175781 231.199219 263.730469 224.617188 272.0625 215.808594 C 282.246094 205.046875 290.707031 192.675781 296.90625 179.203125 C 310.46875 149.730469 312.363281 116.503906 307.289062 84.78125 C 306.136719 77.488281 297.960938 73.742188 291.6875 77.585938 C 263.066406 95.132812 197.71875 144.941406 212.46875 227.390625 C 210.941406 227.140625 209.375 226.90625 207.722656 226.765625 C 204.625 226.34375 201.941406 226.234375 199.34375 226.136719 C 198.378906 226.109375 197.417969 226.066406 196.441406 226.011719 L 196.300781 226.011719 L 190.082031 226.246094 C 188.25 226.273438 186.53125 226.480469 184.867188 226.671875 L 184.054688 226.765625 C 181.742188 226.964844 179.527344 227.347656 177.367188 227.761719 C 181.152344 201.65625 180.640625 152.644531 132.839844 122.890625 C 132.839844 122.890625 127.96875 118.164062 111.222656 133.128906 C 94.488281 148.097656 73.796875 149.105469 70.367188 161.894531 C 66.941406 174.683594 71.992188 216.597656 67.039062 227.460938 C 62.609375 237.1875 104.230469 228.933594 122.945312 175.015625 L 128.4375 154.3125 C 128.394531 155.265625 127.417969 175.761719 120.910156 194.875 C 117.578125 204.59375 112.832031 213.964844 106.035156 220.207031 C 106.035156 220.207031 119.945312 234.417969 141.671875 241.640625 C 141.480469 241.777344 141.273438 241.902344 141.039062 242.054688 C 131.335938 248.367188 122.582031 256.15625 115.25 265.128906 C 111.523438 269.683594 108.164062 274.542969 105.230469 279.652344 C 102.828125 283.835938 98.273438 290.3125 98.273438 295.28125 C 98.273438 297.101562 99.210938 298.839844 100.859375 299.804688 L 101.644531 300.257812 C 103.902344 301.582031 285.988281 300.960938 287.570312 300.960938 C 288.410156 300.960938 289.277344 300.753906 290.0625 300.324219 L 290.863281 299.886719 C 293.210938 298.605469 294.203125 295.746094 293.164062 293.265625 C 292.828125 292.472656 292.488281 291.675781 292.132812 290.886719 " fill-opacity="1" fill-rule="nonzero"/></g></svg>